# xmcd
#
# Track frame offsets: 
#        150
#        20522
#        42165
#        62530
#        84952
#        103670
#        124527
#        146260
#        162220
#        183362
#        205262
#        223240
#
# Disc length: 3186 seconds
#
# Revision: 1
# Processed by: cddbd v1.5.2PL0 Copyright (c) Steve Scherf et al.
# Submitted via: ExactAudioCopy v1.0b2
#
DISCID=9d0c700c
DTITLE=김현철 - 6집
DYEAR=1998
DGENRE=K-Pop
TTITLE0=La Quinta (작곡:김현철 편곡:김현철)
TTITLE1=거짓말도 보여요 (작사:유정연, 김현철 작곡:김현철, 유정연 편곡:김현철)
TTITLE2=무슨말로 어떻게 (작사:김현철 작곡:김현철 편곡:김현철)
TTITLE3=내가 못난 때문인걸요 (작사:김현철 작곡:김현철 편곡:김현철)
TTITLE4=혹시나, 어쩌면, 만약에 (작사:김현철 작곡:김현철 편곡:김현철)
TTITLE5=
TTITLE6=아침의 그 노래는 (작사:김현철 작곡:김현철 편곡:김현철)
TTITLE7=그대 내게 행복을 주는 사람 (작사:이주호 작곡:이주호 편곡:김현철)
TTITLE8=서울도 비가 오면 괜찮은 도시 (작사:김현철 작곡:김현철 편곡:김현철)
TTITLE9=얘기 featuring 이세준 (작사:김현철 작곡:김현철 편곡:김현철)
TTITLE10=이게 바로 나에요 featuring 유희열 (작사:김현철 작곡:김현철 편곡:김현철)
TTITLE11=그대 내게 행복을 주는 사람 (MR)
EXTD=
EXTT0=
EXTT1=
EXTT2=
EXTT3=
EXTT4=
EXTT5=
EXTT6=
EXTT7=
EXTT8=
EXTT9=
EXTT10=
EXTT11=
PLAYORDER=
